<?xml version="1.0" encoding="iso-8859-1"?>
<!-- Generator: Adobe Illustrator 15.1.0, SVG Export Plug-In . SVG Version: 6.00 Build 0)  -->
<!DOCTYPE svg PUBLIC "-//W3C//DTD SVG 1.1//EN" "http://www.w3.org/Graphics/SVG/1.1/DTD/svg11.dtd">
<svg version="1.1" id="Layer_1" xmlns="http://www.w3.org/2000/svg" xmlns:xlink="http://www.w3.org/1999/xlink" x="0px" y="0px"
	 width="1800px" height="1800px" viewBox="0 0 1800 1800" style="enable-background:new 0 0 1800 1800;" xml:space="preserve">
<path style="fill:#C16D29;" d="M906.507,17.895c-482.754,0-874.104,391.35-874.104,874.104
	c0,482.753,391.35,874.104,874.104,874.104c482.756,0,874.104-391.352,874.104-874.104
	C1780.611,409.245,1389.263,17.895,906.507,17.895z M1627.626,1204.719c-3.812,5.68-10.413,15.163-19.855,28.365
	c-9.483,13.251-22.246,28.366-38.29,45.383c-16.087,17.023-34.525,33.601-55.309,49.635c-20.832,16.092-43.522,29.785-68.076,41.137
	c-11.344,7.578-26.014,14.18-43.965,19.847c-17.992,5.682-37.361,9.485-58.146,11.352c-9.479,1.901-20.829,1.42-34.036-1.424
	c-13.25-2.835-26.504-8.015-39.708-15.595c-13.254-7.533-24.597-17.947-34.038-31.198c-9.482-13.214-15.154-28.363-17.021-45.391
	v-11.339c-5.667-18.882-3.322-50.569,7.09-95.026c10.377-44.401,24.556-93.595,42.55-147.488
	c17.946-53.894,36.876-107.3,56.725-160.258c19.859-52.915,35.457-96.435,46.801-130.473c1.862-18.883-8.508-17.949-31.197,2.833
	c-9.487,7.582-28.363,26.019-56.727,55.312c-28.366,29.338-60.053,64.792-95.022,106.365
	c-35.012,41.617-69.493,86.066-103.526,133.313c-34.036,47.285-41.295,71.756-89.371,136.441
	c-48.078,64.685-133.069,136.737-133.069,136.737s-32.161,23.392-50.01,34.289c-34.039,20.832-71.889,31.198-113.458,31.198
	c-26.505,0-46.804-5.667-60.985-17.013c-14.181-11.348-24.596-24.109-31.198-38.292c-6.647-14.184-10.905-28.806-12.766-43.967
	c-1.905-15.111-2.835-27.386-2.835-36.872c-32.175,39.713-67.631,72.814-106.364,99.274
	c-38.779,26.503-77.073,39.712-114.877,39.712c-30.267,0-55.796-6.608-76.581-19.855c-20.83-13.211-38.293-31.199-52.475-53.894
	c-14.183-22.692-24.552-48.218-31.198-76.583c-6.607-28.362-9.932-56.727-9.932-85.09c0-69.936,14.182-144.661,42.546-224.078
	c5.674-18.881,18.439-47.729,38.294-86.509c19.857-38.738,47.241-78.002,82.253-117.713c34.97-39.708,77.517-75.162,127.639-106.366
	c50.08-31.197,109.204-48.663,177.273-52.472c85.094,0,148.431,11.833,190.041,35.457c41.573,23.665,62.403,52.473,62.403,86.51
	c0,15.155-3.325,29.782-9.928,43.963c-6.647,14.183-14.181,26.945-22.693,38.294c-8.509,11.343-17.506,20.831-26.942,28.364
	c-9.487,7.575-16.089,11.343-19.855,11.343c-11.35-17.017-21.765-30.226-31.204-39.708c-9.482-9.44-22.69-17.95-39.706-25.528
	c-17.022-7.535-36.874-11.348-59.565-11.348c-54.867,1.907-104.019,21.271-147.492,58.149
	c-43.526,36.873-80.397,80.835-110.622,131.891c-30.27,51.054-52.961,104.015-68.075,158.841
	c-15.158,54.863-22.691,100.248-22.691,136.147c0,15.155,1.86,32.171,5.674,51.052c3.767,18.926,10.369,28.365,19.855,28.365
	c22.691,0,44.407-7.534,65.237-22.69c20.783-15.112,40.641-34.036,59.563-56.727c18.882-22.69,35.899-47.731,51.059-75.167
	c15.108-27.39,28.363-54.332,39.706-80.837c1.861-1.86,5.186-16.531,9.93-43.963c4.695-27.39,13.205-56.728,25.525-87.932
	c12.274-31.198,28.808-59.562,49.636-85.092c20.792-25.525,47.248-38.289,79.419-38.289c17.021,0,33.556,3.81,49.639,11.344
	c16.043,7.579,30.229,16.088,42.542,25.528c12.28,9.482,21.717,17.995,28.366,25.529c6.605,7.577,9.929,12.316,9.929,14.182
	c0,3.81-1.417,7.091-4.256,9.925c-2.835,2.835-7.09,7.581-12.766,14.184c-5.67,6.646-12.761,16.572-21.273,29.781
	c-8.508,13.252-18.431,31.202-29.781,53.893c-7.574,15.155-17.506,37.361-29.78,66.654c-12.322,29.337-24.599,59.123-36.873,89.349
	c-12.322,30.269-22.69,58.145-31.203,83.674c-8.509,25.526-12.761,43.963-12.761,55.307c0,7.579,3.767,11.347,11.343,11.347
	c9.441,0,21.272-2.352,35.456-7.09c31.19-9.499,90.85-124.811,104.78-163.016c13.932-38.204,31.084-77.803,44.29-117.51
	c13.205-39.71,27.385-78.444,42.546-116.295c11.343-30.224,26.459-69.003,45.382-116.29c18.88-47.247,38.29-96.883,58.146-148.913
	c19.855-51.986,39.712-103.973,59.567-156.002c19.849-51.986,36.385-97.855,49.639-137.562c3.768-9.441,8.952-25.531,15.598-48.22
	c6.6-22.691,7.09-40.641,1.414-53.894c-3.811-5.673,1.42-8.952,15.601-9.927c14.183-0.931,26.947-0.442,38.295,1.417
	c18.877,1.908,39.225,7.092,60.979,15.601c21.72,8.508,39.713,20.345,53.894,35.455c14.183,15.156,22.69,35.011,25.525,59.568
	c2.841,24.596-4.252,53.889-21.271,87.926c-5.669,11.347-15.598,30.755-29.781,58.146c-14.183,27.434-30.758,60.541-49.639,99.273
	c-18.924,38.779-40.197,81.815-63.819,129.056c-23.662,47.293-46.795,95.507-69.493,144.66
	c30.231-39.711,65.244-82.258,104.95-127.638c39.71-45.385,73.749-80.351,102.113-104.947c20.782-17.017,38.73-27.39,53.887-31.198
	c7.535-3.768,15.113-5.675,22.69-5.675c18.882-1.859,42.063-1.417,69.494,1.418c27.392,2.835,52.477,10.905,75.166,24.107
	c22.69,13.255,39.225,31.204,49.64,53.895c10.366,22.689,6.115,52.961-12.766,90.766c-9.485,18.924-26.947,51.054-52.474,96.435
	c-25.527,45.385-52.475,94.578-80.84,147.494c-28.364,52.96-53.889,105.922-76.586,158.842
	c-22.689,52.961-35.937,97.409-39.707,133.308c3.771,11.349,17.018,13.25,39.707,5.678c22.697-7.533,47.74-18.882,75.17-34.043
	c27.391-15.115,53.893-32.13,79.419-51.049c25.528-18.882,42.986-35.898,52.478-51.059c1.858,0,3.766-0.936,5.667-2.835
	c1.866,0,3.281-0.444,4.256-1.423c0.931-0.933,3.278-0.443,7.09,1.423c9.443,3.813,12.278,9.48,8.509,17.019
	C1636.135,1193.374,1633.303,1199.051,1627.626,1204.719z"/>
</svg>
