<?xml version="1.0" encoding="utf-8"?>
<!-- Generator: Adobe Illustrator 16.0.4, SVG Export Plug-In . SVG Version: 6.00 Build 0)  -->
<!DOCTYPE svg PUBLIC "-//W3C//DTD SVG 1.1//EN" "http://www.w3.org/Graphics/SVG/1.1/DTD/svg11.dtd">
<svg version="1.1" id="Layer_1" xmlns="http://www.w3.org/2000/svg" xmlns:xlink="http://www.w3.org/1999/xlink" x="0px" y="0px"
	 width="543.821px" height="543.82px" viewBox="0 0 543.821 543.82" enable-background="new 0 0 543.821 543.82"
	 xml:space="preserve">
<path d="M18.456,339.905c8.65,37.972,28.121,54.241,50.939,77.059c16.102,16.105,32.217,32.215,48.322,48.324
	c18.682,18.679,34.836,40.153,61.385,50.938c72.51,29.438,120.197-40.524,151.504-71.836c30.035-30.036,60.082-60.081,90.119-90.116
	c16.602-16.604,37.264-31.656,47.018-54.854c8.708-20.709,6.531-52.951,6.531-82.284c0-50.496,0-101.006,0-151.501
	c-31.976,0-63.957,0-95.932,0c-0.205-13.871-0.201-27.466,2.569-32.717c3.317-0.978,12.567-0.836,16.681-0.774
	c5.953,0.091,12.547,0.097,19.526,0.103c7.849,0.007,16.744,0.015,26.244,0.147l0.257,0.003l0.257-0.005
	c11.015-0.225,22.235-0.22,33.088-0.224c5.192-0.002,10.278,0.001,15.181-0.023c2.009-0.01,3.957-0.045,5.838-0.08
	c4.227-0.077,9.75-0.18,12.518,0.341c0.792,4.347,0.961,10.777,1.127,17.041c0.057,2.124,0.113,4.288,0.193,6.473
	c-0.004,26.505-0.54,57.891-0.545,58.206c-0.143,8.282,6.455,15.113,14.738,15.256c8.252,0.133,15.113-6.456,15.256-14.739
	c0.006-0.319,0.551-32.18,0.551-58.999l-0.01-0.559c-0.082-2.171-0.138-4.321-0.193-6.43c-0.295-11.199-0.574-21.777-4.133-30.613
	l-0.707-1.759l-1.123-1.527c-9.719-13.212-24.864-12.933-38.221-12.687c-1.752,0.032-3.564,0.066-5.436,0.075
	c-4.857,0.024-9.898,0.025-15.031,0.023c-10.924,0.003-22.207-0.001-33.445,0.225c-9.596-0.131-18.506-0.14-26.375-0.147
	c-6.869-0.006-13.359-0.012-19.098-0.099c-14.835-0.227-31.656-0.483-40.957,12.392c-9.369,12.967-9.084,30.653-8.689,55.132
	c0.093,5.785,0.189,11.768,0.168,18.174c-0.141,42.13-0.25,89.015-0.25,89.015c-0.02,8.284,6.68,15.015,14.965,15.035
	c0.012,0,0.025,0,0.036,0c8.269,0,14.979-6.692,15-14.965c0-0.001,0.043-18.183,0.108-42.073c0.603,0,1.205,0,1.807,0
	c12.515,12.269,23.949,17.066,28.732,37.873c9.194,40-42.269,68.387-74.445,48.325c-9.885-6.162-18.873-18.833-22.201-31.345
	c-0.002-41.354-0.002-82.723-0.002-124.077c-26.467-0.238-53.416-1.253-71.832,6.527c-29.684,12.543-50.342,42.503-71.836,63.999
	c-43.531,43.096-87.074,86.204-130.605,129.303C27.045,280.316,11.536,309.521,18.456,339.905z"/>
</svg>
