<?xml version="1.0" encoding="utf-8"?>
<!-- Generator: Adobe Illustrator 16.0.4, SVG Export Plug-In . SVG Version: 6.00 Build 0)  -->
<!DOCTYPE svg PUBLIC "-//W3C//DTD SVG 1.1//EN" "http://www.w3.org/Graphics/SVG/1.1/DTD/svg11.dtd">
<svg version="1.1" id="Layer_1" xmlns="http://www.w3.org/2000/svg" xmlns:xlink="http://www.w3.org/1999/xlink" x="0px" y="0px"
	 width="543.821px" height="543.821px" viewBox="0 0 543.821 543.821" enable-background="new 0 0 543.821 543.821"
	 xml:space="preserve">
<path d="M11.346,399.278L401.868,8.756c8.459-8.46,22.224-8.46,30.686-0.001l102.511,102.512c8.462,8.46,8.462,22.226,0,30.687
	L144.545,532.477c-8.461,8.459-22.228,8.459-30.688,0L11.344,429.963C2.885,421.504,2.885,407.739,11.346,399.278z M57.958,380.564
	l-32.664,32.664c-0.769,0.763-0.769,2.019,0,2.785l102.512,102.514c0.769,0.767,2.019,0.767,2.788,0l390.521-390.524
	c0.769-0.769,0.769-2.019,0-2.788L418.605,22.707c-0.769-0.769-2.02-0.767-2.788,0l-28.319,28.319l57.805,57.807l-13.948,13.95
	l-57.807-57.806l-18.411,18.41l39.038,39.041l-13.949,13.951l-39.039-39.039l-23.016,23.016l39.038,39.038l-13.953,13.951
	l-39.033-39.039l-21.926,21.921l57.807,57.805l-13.951,13.953l-57.806-57.807l-17.863,17.863l39.039,39.04l-13.948,13.951
	l-39.042-39.04l-23.018,23.019l39.039,39.038L238.601,278l-39.039-39.04l-22.465,22.467l57.805,57.806l-13.95,13.952l-57.806-57.807
	l-20.102,20.103l39.039,39.039l-13.948,13.952l-39.041-39.037l-23.016,23.016l39.039,39.041l-13.952,13.95l-39.038-39.039
	l-20.227,20.227l57.806,57.805l-13.951,13.952L57.958,380.564z"/>
</svg>
