<?xml version="1.0" encoding="utf-8"?>
<!-- Generator: Adobe Illustrator 16.0.0, SVG Export Plug-In . SVG Version: 6.00 Build 0)  -->
<!DOCTYPE svg PUBLIC "-//W3C//DTD SVG 1.1//EN" "http://www.w3.org/Graphics/SVG/1.1/DTD/svg11.dtd">
<svg version="1.1" id="Layer_1" xmlns="http://www.w3.org/2000/svg" xmlns:xlink="http://www.w3.org/1999/xlink" x="0px" y="0px"
	 width="543.821px" height="543.82px" viewBox="-606.061 -30.002 543.821 543.82"
	 enable-background="new -606.061 -30.002 543.821 543.82" xml:space="preserve">
<g>
	<rect x="-442.037" y="67.465" width="229.166" height="20"/>
	<rect x="-442.037" y="238.275" width="229.166" height="20"/>
	<rect x="-442.037" y="323.68" width="229.166" height="20"/>
	<rect x="-442.037" y="152.871" width="229.166" height="20"/>
	<path d="M-95.531,13.844c-1.639-2.824-5.947-9.351-14.186-16.299c-0.008-0.005-0.014-0.01-0.02-0.016
		c-1.76-1.603-3.578-3.151-5.471-4.623c-0.012-0.009-0.217-0.008-0.584,0.019c-11.775-8.135-26.238-13.588-42.307-15.87
		l-0.885-0.125l-0.893-0.02c-22.242-0.494-49.133-0.663-79.91-0.504c-35.572,0.186-103.195,0.498-156.422,0.5
		c-6.902,0-13.641-0.098-20.154-0.192c-35.09-0.508-62.803-0.912-78.4,14.534c-16.967,16.8-17.932,45.143-17.443,83.35
		c0.176,13.81,0.23,28.733,0.289,44.532c0.047,12.704,0.094,25.841,0.211,38.91c0.725,81.664,0.34,166.191,0.332,167.033
		l29.666-0.035c0.008-0.844,0.729-85.331,0-167.264c-0.115-12.991-0.164-26.088-0.209-38.754
		c-0.061-15.869-0.113-30.858-0.291-44.805c-0.299-23.396-0.727-51.673,8.502-60.809c6.646-6.582,33.373-7.036,56.91-6.695
		c6.621,0.096,13.469,0.195,20.59,0.195c53.293-0.002,120.977-0.314,156.576-0.5c30.084-0.156,56.375,0.004,78.164,0.476
		c4.498,0.682,8.531,1.647,12.154,2.79c-1.781,1.592-3.584,3.327-5.396,5.234c-16.232,17.068-26.447,46.685-26,59.167
		c2.029,56.558-1.572,148.176,0,225.668c0.697,34.395,0.982,65.855,1.332,89.666c0.318,21.732,1.07,37.146-5.332,41.5
		c-22.303,15.166-38.576-4.684-46.666-22.5c-5.514-12.145-1.635-22.242-9.334-29.334c-3.355-3.09-15.451-2.336-35-2.332
		c-20.627,0.002-49.398-0.646-79-0.334c-62.367,0.66-129.117,0.066-176,0.332c-29.229,0.164-51.344-2.781-58,5.668
		c-12.41,27,37,101.666,80,111.5c13.75,0.5,29.633,0.381,55,0.25c38.854-0.201,91.145,0.037,143.5,0c28.594-0.021,56.385-0.039,82,0
		c31.645,0.049,59.119-0.855,77-17.25c12.006-11.008,20.709-25.865,23.5-47.834c3.688-29.035-0.707-68.252,0.666-105.332
		c0-44.666,0.479-91.646,0.334-132.001c-0.223-61.478-0.1-107.716-0.1-107.716s10.35,0.132,24.85-0.118
		c14.477,0.136,16.66,0.105,19.75-10.5C-77.658,53.822-83.092,32.011-95.531,13.844z"/>
</g>
</svg>
