<?xml version="1.0" encoding="utf-8"?>
<!-- Generator: Adobe Illustrator 16.0.4, SVG Export Plug-In . SVG Version: 6.00 Build 0)  -->
<!DOCTYPE svg PUBLIC "-//W3C//DTD SVG 1.1//EN" "http://www.w3.org/Graphics/SVG/1.1/DTD/svg11.dtd">
<svg version="1.1" id="Layer_1" xmlns="http://www.w3.org/2000/svg" xmlns:xlink="http://www.w3.org/1999/xlink" x="0px" y="0px"
	 width="543.821px" height="543.82px" viewBox="0 0 543.821 543.82" enable-background="new 0 0 543.821 543.82"
	 xml:space="preserve">
<g>
	<path fill="none" d="M539.936,318.055c0,65.333,0,130.667,0,196c-170.666,0-341.333,0-512,0c0-23,0-46,0-69
		c0.347,1.263,0.832,2.503,1.021,3.788c5.443,36.924,36.289,63.951,73.548,64.003c77.983,0.108,155.966,0.059,233.949-0.027
		c4.631-0.006,9.342-0.502,13.879-1.438c35.994-7.437,60.362-37.463,60.371-74.199c0.014-59.651,0.08-119.306-0.033-178.959
		c-0.039-20.812,0.617-41.721-1.092-62.416c-2.729-33.09-33.146-62.128-66.229-63.483c-27.117-1.111-54.306-0.545-81.461-0.572
		c-52.987-0.053-105.976-0.141-158.962,0.06c-34.854,0.133-63.744,22.539-72.397,55.62c-1.004,3.839-1.735,7.75-2.592,11.627
		c0-65.624,0-131.249,0-196.937c170.667,0,341.333,0,512,0c0,22.633,0,45.284,0,67.937c-0.349-1.261-0.836-2.501-1.024-3.784
		c-5.304-35.979-35.289-62.817-71.611-62.946c-79.484-0.283-158.973-0.266-238.458,0c-32.171,0.107-60.95,22.354-69.447,52.812
		c-4.371,15.667-2.667,31.732-2.38,47.683c0.004,0.249,0.386,0.491,0.862,1.06c6.213,0,12.691,0,19.168,0c6.435,0,12.869,0,19.667,0
		c0-9.141,0.378-17.632-0.075-26.078c-1.097-20.451,17.4-34.952,34.693-34.937c77.985,0.072,155.971-0.003,233.956,0.081
		c19.088,0.021,34.033,14.863,34.051,33.803c0.068,77.485,0.025,154.972-0.033,232.457c-0.002,2.969-0.209,6.036-0.965,8.889
		c-3.766,14.236-17.312,24.67-32.528,24.992c-9.959,0.211-19.925,0.04-30.088,0.04c0,13.532,0,26.541,0,39.729
		c11.95,0,23.461,0.471,34.922-0.09c33.127-1.614,60.562-25.184,67.498-57.477C538.733,323.542,539.338,320.799,539.936,318.055z"/>
	<path d="M27.937,199.055c0.857-3.877,1.588-7.788,2.592-11.627c8.653-33.081,37.543-55.487,72.397-55.62
		c52.987-0.199,105.975-0.111,158.962-0.06c27.157,0.027,54.344-0.539,81.461,0.572c33.084,1.355,63.5,30.395,66.229,63.483
		c1.709,20.695,1.053,41.604,1.092,62.416c0.113,59.653,0.047,119.308,0.033,178.959c-0.009,36.736-24.377,66.764-60.371,74.199
		c-4.537,0.938-9.248,1.435-13.879,1.438c-77.982,0.086-155.966,0.137-233.949,0.027c-37.259-0.052-68.104-27.079-73.548-64.003
		c-0.189-1.285-0.674-2.525-1.021-3.788C27.937,363.055,27.937,281.055,27.937,199.055z M70.503,322.879c0.008,0,0.016,0,0.023,0
		c0,38.983-0.015,77.966,0.005,116.949c0.012,22.075,13.374,35.375,35.5,35.374c76.799-0.001,153.599-0.015,230.397-0.019
		c20.584,0,34.604-13.896,34.607-34.362c0.014-77.466-0.314-154.936,0.248-232.397c0.149-20.442-13.082-37.642-37.593-37.47
		c-75.962,0.532-151.931,0.175-227.897,0.251c-3.791,0.004-7.692,0.407-11.35,1.362c-14.808,3.868-23.89,16.553-23.92,33.36
		C70.455,244.913,70.503,283.896,70.503,322.879z"/>
	<path d="M539.936,318.055c-0.598,2.744-1.203,5.486-1.793,8.232c-6.938,32.293-34.371,55.861-67.498,57.477
		c-11.461,0.561-22.971,0.089-34.922,0.089c0-13.187,0-26.194,0-39.728c10.164,0,20.129,0.171,30.088-0.04
		c15.217-0.322,28.764-10.756,32.529-24.992c0.756-2.853,0.963-5.92,0.965-8.889c0.059-77.485,0.102-154.972,0.033-232.457
		c-0.019-18.938-14.963-33.782-34.051-33.803c-77.984-0.084-155.972-0.01-233.957-0.081c-17.293-0.017-35.791,14.484-34.693,34.937
		c0.453,8.446,0.075,16.938,0.075,26.078c-6.798,0-13.232,0-19.667,0c-6.478,0-12.956,0-19.168,0
		c-0.476-0.568-0.858-0.811-0.862-1.06c-0.287-15.949-1.991-32.016,2.38-47.683c8.498-30.46,37.276-52.705,69.447-52.812
		c79.484-0.267,158.972-0.283,238.457,0c36.322,0.129,66.31,26.967,71.611,62.945c0.189,1.284,0.678,2.524,1.025,3.785
		C539.936,152.722,539.936,235.388,539.936,318.055z"/>
	<path fill="none" d="M70.503,322.879c0-38.982-0.048-77.967,0.022-116.95c0.03-16.809,9.112-29.493,23.92-33.36
		c3.657-0.955,7.559-1.358,11.35-1.362c75.966-0.076,151.935,0.281,227.897-0.251c24.51-0.172,37.742,17.026,37.592,37.47
		c-0.562,77.463-0.234,154.933-0.248,232.397c-0.004,20.468-14.023,34.361-34.607,34.363c-76.797,0.004-153.597,0.017-230.396,0.018
		c-22.126,0.001-35.488-13.299-35.5-35.374c-0.021-38.983-0.005-77.966-0.005-116.949C70.519,322.879,70.511,322.879,70.503,322.879
		z"/>
</g>
</svg>
